<?xml version="1.0" standalone="no"?>
<!DOCTYPE svg PUBLIC "-//W3C//DTD SVG 20010904//EN"
 "http://www.w3.org/TR/2001/REC-SVG-20010904/DTD/svg10.dtd">
<svg version="1.0" xmlns="http://www.w3.org/2000/svg"
 width="1647.000000pt" height="1647.000000pt" viewBox="0 0 1647.000000 1647.000000"
 preserveAspectRatio="xMidYMid meet">
<metadata>
Created by potrace 1.14, written by Peter Selinger 2001-2017
</metadata>
<g transform="translate(0.000000,1647.000000) scale(0.100000,-0.100000)"
fill="#000000" stroke="none">
<path d="M2709 10976 c-2 -2 -53 -6 -114 -10 -112 -6 -136 -9 -215 -26 -48
-11 -74 -16 -130 -26 -19 -3 -71 -17 -115 -30 -85 -25 -114 -31 -184 -40 -40
-5 -245 -70 -296 -93 -11 -5 -80 -35 -153 -66 -120 -51 -313 -136 -418 -186
l-41 -19 -64 24 c-46 17 -70 21 -82 15 -9 -6 -21 -8 -26 -4 -5 3 -12 -4 -16
-15 -4 -11 -19 -27 -35 -35 -19 -10 -39 -36 -59 -79 -17 -35 -31 -68 -31 -74
0 -11 -62 -52 -165 -107 -38 -20 -114 -66 -168 -101 -54 -36 -134 -82 -178
-104 -93 -47 -127 -80 -164 -158 -21 -43 -29 -76 -32 -137 l-4 -80 178 -176
c122 -121 190 -180 216 -189 20 -8 37 -20 37 -26 0 -7 -20 -113 -45 -236 -24
-123 -47 -236 -49 -253 -13 -80 -17 -104 -26 -155 -6 -30 -12 -64 -14 -75 -2
-11 -7 -42 -10 -68 -4 -27 -9 -59 -12 -70 -2 -12 -6 -44 -9 -72 -4 -27 -8 -61
-10 -75 -4 -24 -8 -73 -20 -227 -3 -38 -8 -84 -10 -103 -2 -19 -7 -73 -11
-120 -3 -47 -8 -101 -9 -120 -7 -84 -18 -330 -18 -385 1 -33 3 -285 5 -560 2
-275 7 -505 10 -510 3 -6 9 -38 12 -73 8 -77 30 -183 50 -239 29 -81 66 -129
225 -288 l160 -159 43 13 c24 7 63 18 88 25 45 13 45 14 46 60 2 50 18 78 43
75 39 -3 62 2 80 20 11 11 30 21 43 23 19 2 23 8 21 36 -2 39 6 40 37 7 13
-14 27 -25 31 -25 5 0 8 73 9 163 0 171 2 192 13 203 4 4 7 24 7 45 0 21 7 59
15 84 10 27 15 75 14 123 -1 42 5 109 13 148 8 38 11 82 7 96 -4 14 -2 48 3
75 5 26 11 107 14 178 2 72 5 153 8 180 2 28 7 127 10 220 6 148 11 210 22
250 1 6 5 28 9 50 3 22 10 54 15 70 4 17 11 46 14 65 4 21 17 44 34 57 15 13
48 41 73 63 25 22 56 40 67 40 12 0 25 6 29 14 10 17 73 56 91 56 7 0 30 13
50 30 20 16 53 36 73 44 19 8 41 22 48 30 7 9 26 22 42 30 l29 14 1 -86 c0
-48 2 -103 4 -122 6 -46 15 -125 21 -174 3 -22 11 -55 19 -73 7 -17 16 -49 19
-69 4 -20 19 -68 35 -106 58 -138 98 -189 302 -392 271 -270 299 -281 554
-216 145 37 134 33 220 66 39 14 76 26 83 27 6 0 12 4 12 9 0 5 4 7 8 4 5 -3
32 10 61 29 29 19 57 32 63 29 5 -4 54 38 109 92 119 119 142 140 152 136 5
-1 6 2 3 7 -3 5 4 21 16 37 13 15 23 33 24 39 0 5 2 16 2 24 2 10 5 11 15 2
14 -11 27 -5 27 13 0 6 -5 4 -11 -4 -8 -12 -10 -12 -7 -1 2 8 12 15 22 17 22
3 46 24 28 24 -20 0 -13 25 13 50 14 13 23 25 20 28 -8 8 16 45 101 152 58 74
95 133 124 200 23 52 48 107 56 122 8 14 14 33 14 41 0 9 4 18 8 21 5 3 5 -23
1 -57 -23 -194 -33 -500 -18 -529 16 -29 309 -322 331 -331 24 -9 64 27 78 68
6 19 16 35 22 35 5 0 22 13 38 30 20 22 36 29 61 29 57 -1 109 9 124 25 34 33
64 137 80 271 8 67 23 113 40 123 8 4 24 59 39 132 14 69 36 175 50 235 14 61
28 130 32 155 5 42 42 221 65 320 6 25 13 56 16 70 2 13 20 90 39 170 18 80
36 156 40 169 5 22 21 9 177 -146 95 -94 187 -178 206 -188 24 -12 50 -16 93
-13 l59 4 -30 -23 c-17 -13 -80 -65 -140 -116 -61 -51 -154 -123 -208 -162
-54 -38 -125 -96 -158 -127 -33 -32 -70 -67 -82 -79 -12 -11 -24 -38 -28 -59
-6 -33 -2 -46 23 -82 37 -53 337 -352 379 -378 17 -10 34 -23 37 -29 4 -6 15
-11 24 -11 9 0 29 -12 44 -27 17 -16 42 -28 63 -30 20 -1 44 -7 54 -12 38 -21
104 7 123 50 7 16 19 31 26 34 8 3 11 0 7 -8 -4 -6 9 4 27 24 18 21 43 40 56
44 12 3 22 11 22 16 0 5 6 9 14 9 20 0 29 17 15 26 -8 5 -9 3 -4 -7 5 -8 4
-10 0 -6 -5 4 -10 15 -11 23 -2 12 3 14 21 10 45 -11 179 56 170 84 -9 29 53
54 157 64 45 4 70 22 63 45 -5 18 51 85 65 76 4 -3 13 2 20 10 6 7 17 12 24 9
7 -3 26 7 42 22 16 14 50 46 77 70 26 24 51 44 56 44 5 0 11 -12 14 -27 4 -19
71 -92 209 -228 112 -110 212 -206 223 -213 11 -7 13 -10 5 -6 -12 5 -12 4 -4
-6 8 -8 20 -9 35 -4 13 4 27 9 32 10 4 1 8 2 10 3 1 2 13 5 26 7 14 2 50 11
80 19 31 8 71 17 90 20 19 3 39 8 44 12 5 3 25 7 44 9 19 2 43 6 55 9 13 5 28
-1 44 -16 30 -28 44 -17 18 13 -10 13 -12 17 -4 11 19 -18 48 -16 97 6 40 19
42 19 58 1 16 -17 19 -18 63 -2 26 9 80 32 120 51 40 19 86 34 102 34 17 0 27
5 23 10 -4 6 -1 7 6 3 16 -10 64 2 56 13 -3 5 5 7 17 3 11 -3 19 -1 16 4 -4 5
7 10 22 11 16 1 55 13 87 27 32 13 75 27 95 31 21 4 35 11 32 16 -3 5 0 9 6 9
6 0 8 4 5 10 -3 5 0 7 8 4 19 -7 299 85 292 97 -3 5 15 14 40 20 25 6 45 15
45 19 0 4 20 11 45 14 25 4 45 12 45 18 0 6 3 8 7 5 3 -4 12 -2 18 3 9 7 37
-14 101 -78 113 -112 149 -139 199 -146 22 -4 44 -11 49 -16 6 -6 20 -10 32
-10 12 0 50 -9 85 -21 105 -34 195 -21 364 56 17 7 57 20 90 29 65 17 184 61
270 101 30 13 67 27 82 31 16 4 55 18 88 32 33 14 83 30 110 37 l50 12 145
-144 c166 -163 134 -149 357 -157 80 -3 123 -1 125 6 2 6 20 11 40 13 20 1 48
12 63 24 16 12 36 19 45 16 10 -3 34 8 60 27 65 50 160 146 160 162 0 8 15 26
33 41 67 54 88 80 84 101 -2 15 4 24 22 32 14 6 30 11 35 11 5 0 18 18 29 40
11 23 28 43 38 46 19 6 94 80 94 92 0 5 27 36 60 70 58 59 106 85 119 64 4 -6
16 -7 35 0 15 6 32 9 37 8 5 -1 30 1 56 5 26 5 66 9 90 10 24 2 60 6 80 11 21
4 46 4 55 0 10 -5 29 -7 42 -6 23 3 23 2 16 -75 -4 -43 -10 -99 -14 -124 -4
-26 -8 -128 -9 -226 l-1 -179 168 -168 c180 -181 206 -198 264 -170 21 11 27
11 27 1 1 -7 8 0 16 15 12 22 13 31 3 43 -9 11 -8 14 8 14 12 0 25 11 32 26
l12 27 99 -98 c94 -92 102 -97 132 -91 18 3 43 14 57 24 40 26 95 31 208 18
79 -10 106 5 174 94 84 110 91 118 108 114 10 -2 39 26 81 81 64 83 65 84 80
63 20 -31 376 -384 433 -430 25 -21 52 -38 61 -38 8 0 31 -9 50 -21 37 -22
109 -25 134 -6 7 6 28 12 45 13 66 7 112 17 126 28 9 6 12 7 9 1 -4 -6 2 -12
13 -12 17 -2 18 0 4 14 -19 19 -11 31 9 14 8 -7 48 -14 88 -15 80 -3 111 2
102 15 -8 14 52 16 121 4 103 -17 128 -18 122 -2 -4 10 4 17 26 22 38 9 113 9
127 0 6 -3 10 -1 10 5 0 6 4 9 8 6 5 -3 35 1 68 9 32 7 104 16 159 20 55 3
107 8 115 10 8 2 100 7 204 10 104 3 193 8 198 11 4 3 18 7 31 10 12 2 33 6
47 9 64 12 100 38 131 94 17 31 38 60 45 64 23 14 16 42 -31 118 -25 40 -45
78 -45 84 0 6 -81 92 -180 190 -198 198 -250 236 -405 291 l-90 32 55 10 c30
6 83 14 117 17 l61 7 141 -140 c78 -78 151 -144 164 -148 12 -3 29 -12 37 -20
43 -37 257 -63 307 -37 14 7 32 13 40 13 8 0 12 4 8 9 -3 5 -1 12 4 15 5 3 12
22 15 41 4 21 13 35 21 35 8 0 17 12 21 28 3 15 31 50 61 78 30 29 63 67 73
85 17 33 17 35 0 69 -25 50 -389 404 -442 431 -24 12 -59 33 -78 48 -68 50
-226 123 -370 170 -59 19 -80 21 -235 16 -151 -5 -222 -10 -276 -20 -9 -2 -42
23 -75 56 -33 33 -73 69 -91 80 -29 18 -228 81 -294 92 -14 3 -53 12 -85 21
-32 8 -97 22 -144 31 -47 8 -96 18 -110 20 -24 5 -237 41 -290 50 -14 2 -45 6
-70 9 -25 3 -56 8 -70 11 -58 11 -77 15 -115 20 -43 6 -144 22 -185 29 -38 7
-229 28 -280 31 -109 6 -216 18 -225 26 -6 4 -23 9 -38 11 -19 3 -61 37 -135
111 -107 107 -139 127 -204 127 -17 0 -41 13 -63 33 -35 32 -104 59 -184 72
-19 3 -37 8 -40 10 -4 2 -25 6 -49 9 -23 3 -60 8 -82 12 -23 3 -67 -2 -101
-10 -33 -9 -69 -16 -79 -16 -9 0 -36 -17 -58 -37 -22 -21 -72 -57 -111 -81
-136 -81 -570 -433 -772 -628 -37 -35 -70 -64 -74 -64 -4 0 -68 61 -142 135
-152 152 -152 152 -308 162 -105 7 -100 13 25 28 30 4 57 8 60 10 7 4 252 18
290 17 129 -5 329 5 370 18 19 6 46 13 59 16 13 3 30 12 39 21 21 21 52 79 52
98 0 14 12 20 33 16 5 -1 11 8 14 19 3 11 9 20 14 20 5 0 9 9 9 20 0 10 7 23
15 27 12 7 -23 47 -160 183 -96 96 -177 176 -179 178 -11 9 -172 36 -292 49
-92 9 -513 10 -725 1 l-146 -6 -69 65 c-87 82 -114 96 -165 88 -52 -9 -134
-76 -164 -134 -13 -25 -34 -58 -47 -73 -13 -15 -52 -66 -87 -113 -35 -47 -66
-85 -69 -85 -2 0 -79 74 -171 165 -91 91 -176 172 -189 181 -52 36 -225 95
-367 125 -33 7 -62 13 -65 14 -3 1 -30 5 -60 9 -30 5 -63 10 -72 11 -9 2 -48
7 -85 10 -37 4 -79 8 -93 11 -140 22 -677 22 -843 -1 -18 -2 -61 -6 -97 -9
-116 -10 -153 -17 -285 -52 -71 -20 -142 -39 -157 -44 -23 -7 -32 -4 -65 31
-21 21 -42 39 -47 39 -5 0 -33 16 -61 35 -28 20 -64 38 -81 41 -49 8 -92 24
-104 39 -7 8 -22 14 -34 14 -11 0 -52 9 -91 20 -53 14 -102 19 -202 19 -129 1
-134 0 -190 -30 -32 -17 -76 -45 -98 -63 -22 -18 -64 -44 -94 -59 -29 -15 -65
-39 -80 -52 -14 -14 -43 -36 -64 -51 l-38 -26 -72 71 c-40 39 -85 76 -100 81
-25 10 -206 7 -277 -4 -14 -2 -54 -6 -90 -10 -36 -3 -87 -10 -115 -16 -138
-26 -220 -42 -323 -65 -63 -13 -127 -26 -144 -29 -17 -3 -38 -10 -47 -14 -9
-5 -34 -11 -56 -14 -38 -6 -166 -32 -210 -44 -11 -3 -42 -9 -70 -13 -27 -5
-86 -19 -130 -33 -44 -14 -91 -27 -105 -30 -14 -3 -50 -14 -80 -25 -112 -41
-192 -62 -228 -62 -20 1 -50 -1 -67 -3 -16 -3 -33 -5 -37 -6 -13 -2 -58 -52
-58 -64 0 -6 -21 9 -46 33 -25 25 -42 37 -39 28 9 -24 -16 -17 -54 15 -36 30
-33 28 -76 32 -16 2 -32 4 -35 5 -3 2 -10 4 -17 4 -7 1 -44 30 -83 65 -49 44
-68 66 -59 71 19 13 17 72 -4 102 -11 14 -17 32 -15 40 3 7 1 23 -3 35 -6 17
-3 26 16 42 16 12 23 25 19 35 -4 11 -1 16 10 16 9 0 16 4 16 8 0 21 -68 97
-213 240 -137 135 -172 163 -188 148z m0 -88 c-5 -17 -14 -35 -20 -39 -15 -9
-2 -126 16 -155 13 -20 11 -24 -19 -50 -45 -39 -119 -143 -120 -168 -1 -12 -8
-30 -16 -42 -21 -28 -224 -121 -436 -199 -109 -40 -208 -84 -254 -112 -41 -26
-124 -75 -184 -110 -109 -64 -182 -112 -221 -144 -11 -9 -44 -36 -74 -60 -80
-64 -135 -173 -140 -272 0 -16 -7 -43 -15 -60 -15 -37 -36 -133 -65 -310 -5
-32 -14 -63 -19 -70 -5 -7 -12 -43 -16 -82 -9 -95 -19 -141 -46 -200 -12 -27
-24 -70 -26 -95 -2 -25 -6 -57 -8 -72 -4 -35 29 -68 65 -64 15 2 53 19 85 38
86 52 231 123 353 173 58 24 158 67 221 95 105 46 120 50 173 46 53 -4 58 -2
75 22 10 15 24 47 31 72 66 241 123 383 313 780 69 144 65 137 99 181 15 19
38 54 51 79 55 103 83 139 118 154 19 8 46 25 59 39 28 31 73 43 174 48 44 2
58 -2 77 -19 13 -12 32 -22 42 -22 20 0 118 -89 118 -108 0 -22 64 -82 88 -82
13 0 20 -4 17 -10 -4 -6 -11 -7 -17 -4 -6 4 -8 2 -4 -4 3 -5 0 -12 -6 -14 -7
-3 2 -5 19 -5 22 0 40 -8 55 -25 25 -28 58 -43 58 -27 0 6 5 7 11 4 7 -5 9 4
5 25 l-5 32 27 -23 c15 -13 29 -28 30 -32 10 -21 45 -44 68 -44 25 0 55 30 85
84 13 25 25 31 64 36 26 4 63 7 81 7 18 0 95 20 171 44 232 73 302 92 463 126
85 17 173 36 195 41 115 28 428 95 490 105 17 3 50 9 75 14 49 9 224 27 332
33 l67 4 -5 -32 c-3 -18 -1 -36 5 -39 5 -3 7 -15 4 -26 -3 -11 -1 -20 5 -20 5
0 13 -7 16 -16 6 -15 4 -15 -11 -3 -15 11 -15 10 1 -9 19 -22 19 -23 -2 -43
-41 -38 -18 -120 33 -115 14 2 37 15 53 29 44 43 73 67 137 110 33 22 80 57
105 78 25 20 68 48 96 62 28 14 64 37 80 50 16 13 56 39 89 58 57 32 65 34
167 36 128 2 230 -19 343 -68 22 -9 56 -20 75 -24 49 -10 141 -77 178 -130 33
-48 68 -59 92 -30 7 8 28 17 49 21 20 3 79 19 131 34 94 27 188 45 285 54 49
5 103 9 290 22 149 10 525 3 605 -11 14 -2 54 -7 90 -11 36 -3 72 -7 80 -9 8
-1 40 -6 70 -10 30 -4 62 -9 70 -10 193 -40 281 -66 376 -110 71 -32 103 -60
150 -126 24 -36 25 -38 10 -74 -20 -48 -20 -85 1 -151 14 -47 15 -58 2 -96
-20 -62 -81 -117 -194 -175 -102 -52 -150 -69 -227 -79 -24 -3 -58 -13 -76
-21 -18 -9 -58 -16 -89 -17 -35 -1 -58 -6 -61 -14 -4 -14 -42 -16 -42 -2 0 6
-9 10 -20 10 -11 0 -20 -3 -20 -7 0 -5 -15 -9 -33 -10 -118 -5 -164 -9 -174
-16 -7 -4 -25 -10 -40 -11 -119 -16 -168 -30 -258 -74 -22 -11 -55 -22 -73
-25 -41 -7 -51 -15 -32 -28 19 -12 88 -3 108 13 9 7 13 8 9 2 -12 -20 31 -44
79 -44 25 0 54 -5 65 -10 10 -6 44 -12 74 -12 30 -1 55 -5 55 -9 0 -3 21 -9
48 -12 71 -9 337 -93 419 -132 40 -18 92 -47 115 -63 79 -53 91 -45 188 118
112 187 215 334 406 576 158 200 307 400 316 424 10 28 80 84 115 93 27 6 74
-29 142 -104 l45 -51 211 8 c351 14 648 9 765 -11 14 -2 48 -7 75 -10 57 -6
115 -23 115 -33 0 -4 -15 -19 -34 -34 -19 -15 -37 -40 -41 -55 -19 -84 -93
-105 -385 -108 -254 -3 -343 -10 -507 -36 -68 -10 -143 -19 -168 -19 -38 0
-51 -6 -86 -37 -23 -21 -60 -63 -83 -93 -22 -30 -77 -90 -122 -133 -94 -89
-113 -124 -83 -158 15 -18 29 -22 67 -20 26 0 56 3 67 5 19 4 182 16 285 22
43 2 447 4 482 2 14 -1 11 -8 -13 -31 -24 -22 -30 -36 -27 -58 6 -38 -24 -65
-81 -73 -24 -3 -49 -10 -55 -15 -6 -4 -60 -12 -121 -15 -132 -9 -182 -15 -215
-28 -49 -19 -169 -48 -266 -64 -99 -16 -127 -17 -282 -10 l-83 4 -38 -37 c-45
-44 -157 -212 -194 -291 -75 -160 -105 -241 -100 -268 3 -15 6 -32 7 -38 11
-62 118 -57 361 16 170 52 508 138 705 181 58 12 112 28 120 35 9 8 30 14 48
16 18 1 32 5 32 9 0 4 8 15 17 24 12 13 14 21 6 34 -9 14 -3 16 56 17 81 1
138 7 261 30 l95 17 200 196 c215 211 310 295 562 497 251 201 274 218 332
250 30 16 75 47 100 69 36 32 60 44 111 54 36 8 70 14 75 14 32 0 142 -16 150
-22 6 -4 23 -8 38 -9 52 -3 132 -35 168 -67 28 -25 49 -34 93 -39 61 -8 86
-25 87 -59 0 -12 1 -54 2 -93 3 -109 46 -141 123 -93 27 16 42 19 81 13 27 -3
55 -10 63 -14 14 -8 56 -13 203 -25 172 -15 280 -29 477 -60 118 -19 247 -40
285 -46 105 -16 284 -46 325 -54 205 -40 436 -97 512 -127 24 -9 26 -13 16
-32 -14 -25 -13 -26 4 -37 10 -6 8 -9 -7 -9 -21 0 -49 -34 -49 -61 0 -8 9 -25
20 -37 16 -17 29 -22 50 -18 32 6 160 22 239 30 28 3 124 11 214 17 143 9 172
9 228 -5 84 -21 233 -80 295 -117 27 -16 53 -29 58 -29 5 0 21 -11 37 -24 15
-13 47 -33 69 -44 56 -29 124 -91 124 -115 0 -10 -29 -49 -65 -86 -36 -37 -65
-72 -65 -78 0 -5 -11 -20 -25 -33 -15 -14 -25 -35 -25 -52 0 -18 -5 -28 -15
-28 -8 0 -15 -4 -15 -10 0 -15 -127 -12 -185 4 -51 14 -144 62 -157 80 -4 6
-8 25 -8 42 0 26 10 39 60 78 48 38 60 53 60 76 0 54 -59 70 -263 70 -62 0
-123 -2 -137 -4 -14 -3 -50 -7 -80 -10 -30 -3 -102 -12 -160 -21 -58 -9 -121
-18 -140 -20 -19 -3 -53 -7 -75 -10 -22 -4 -53 -9 -70 -11 -58 -9 -171 -34
-219 -49 -77 -23 -96 -66 -53 -116 31 -37 112 -60 362 -104 336 -59 580 -128
713 -200 80 -44 99 -60 118 -100 8 -16 27 -52 43 -78 l28 -49 -35 -58 c-29
-50 -41 -61 -80 -74 -25 -9 -56 -16 -69 -16 -14 0 -32 -4 -41 -9 -10 -5 -102
-12 -205 -15 -103 -3 -197 -8 -210 -10 -12 -3 -62 -8 -111 -11 -49 -3 -112
-11 -140 -16 -28 -6 -89 -13 -136 -16 -47 -2 -97 -5 -112 -6 -14 -1 -23 -6
-20 -12 3 -5 -2 -4 -11 4 -15 11 -17 11 -17 -1 0 -13 -9 -13 -56 -5 -59 10
-160 2 -169 -14 -8 -13 -89 -11 -119 2 -18 8 -39 8 -83 0 -32 -7 -66 -13 -75
-14 -10 -1 -18 -5 -18 -9 0 -4 -3 -7 -7 -6 -5 1 -29 -9 -54 -21 l-46 -23 -46
20 c-28 13 -51 30 -56 44 -10 28 -51 52 -77 46 -22 -4 -88 57 -79 72 4 6 17
10 29 10 13 0 43 7 67 16 24 8 76 19 114 24 39 5 83 12 99 15 16 3 59 10 95
15 36 5 111 19 166 30 88 18 330 59 439 75 21 3 42 7 46 10 4 2 61 9 126 15
217 19 264 28 292 53 12 11 22 30 22 42 0 40 -81 92 -153 98 -26 2 -53 10 -61
16 -8 7 -28 12 -43 10 -15 -1 -44 1 -63 4 -19 4 -62 8 -96 11 -33 2 -78 9
-100 15 -21 5 -67 12 -102 14 -34 3 -68 10 -75 15 -7 5 -38 10 -70 11 -33 0
-63 3 -68 7 -5 3 -41 7 -81 9 -169 10 -222 37 -272 144 -29 59 -29 61 -14 108
13 42 22 52 69 80 30 17 68 43 86 58 53 43 375 166 514 196 27 6 49 15 49 20
0 5 7 9 16 9 8 0 13 4 9 9 -3 5 -1 12 5 16 6 4 8 11 4 16 -3 5 -9 7 -14 4 -4
-3 -6 4 -3 15 3 11 1 20 -3 21 -5 0 -16 2 -24 4 -95 21 -267 45 -324 46 -39 0
-95 1 -125 1 -47 1 -58 -3 -78 -26 -13 -15 -23 -32 -23 -39 0 -11 -75 -61 -92
-62 -13 0 -68 -46 -68 -56 0 -18 -90 -92 -125 -103 -24 -7 -113 -92 -220 -211
-44 -48 -85 -93 -90 -99 -26 -28 -165 -196 -196 -236 -61 -81 -203 -240 -214
-240 -14 0 -70 -60 -123 -132 -42 -58 -89 -92 -114 -83 -17 6 -66 16 -102 19
-35 5 -131 -17 -151 -34 -40 -33 215 415 333 585 49 71 178 242 192 255 3 3
22 26 43 52 21 26 43 53 50 60 7 7 39 45 72 83 33 38 100 112 148 164 94 102
109 130 82 157 -30 31 -246 59 -313 42 -20 -5 -68 -11 -105 -14 -58 -3 -73 -1
-94 16 -14 11 -34 20 -43 20 -11 0 -36 28 -66 73 -96 148 -147 184 -190 136
-8 -9 -23 -65 -33 -125 -10 -60 -32 -153 -50 -207 -57 -178 -46 -197 131 -216
63 -7 135 -17 160 -24 41 -11 45 -14 34 -29 -11 -15 -21 -15 -89 -6 -107 15
-244 -9 -286 -49 -20 -20 -41 -74 -41 -107 0 -12 -11 -33 -25 -48 -24 -27 -33
-44 -17 -34 5 3 9 -1 9 -9 0 -10 -4 -12 -12 -5 -15 13 -58 -17 -51 -36 3 -7
-1 -29 -10 -49 -8 -19 -14 -37 -14 -40 -1 -7 -6 -25 -23 -80 -9 -27 -19 -65
-22 -83 -4 -18 -15 -38 -25 -44 -14 -9 -17 -20 -13 -52 4 -41 29 -80 43 -71
12 7 -1 -38 -16 -55 -7 -8 -15 -31 -19 -52 -5 -27 -20 -48 -60 -83 -30 -26
-55 -56 -57 -68 -2 -16 -10 -22 -28 -22 l-25 0 1 165 c0 91 8 226 17 300 9 74
19 155 21 180 3 25 8 70 12 100 18 146 10 191 -36 210 -28 12 -265 7 -337 -6
-19 -4 -39 -2 -46 5 -14 11 -29 10 -167 -9 -47 -6 -127 -14 -178 -16 -52 -2
-103 -9 -114 -15 -27 -14 -134 -126 -165 -171 -27 -40 -43 -48 -43 -23 0 18
-16 20 -26 3 -5 -7 -3 -8 7 -3 8 5 -4 -9 -26 -31 -21 -21 -43 -38 -47 -36 -4
1 -8 -5 -8 -14 0 -8 -5 -12 -10 -9 -6 3 -13 -1 -16 -10 -6 -13 -8 -14 -15 -3
-6 8 -9 9 -9 1 0 -6 -9 -9 -20 -6 -15 4 -30 -4 -53 -31 -18 -20 -37 -36 -42
-36 -5 0 -34 -24 -64 -52 -30 -29 -49 -45 -42 -35 11 14 11 17 0 17 -10 0 -14
-15 -15 -50 0 -27 3 -47 8 -44 15 10 8 -3 -27 -47 -21 -26 -35 -55 -35 -71 0
-20 -5 -28 -17 -28 -10 0 -29 -3 -42 -7 -19 -5 -22 -3 -16 8 8 12 6 12 -8 0
-9 -7 -17 -11 -17 -7 0 3 -21 -8 -47 -24 -44 -28 -52 -30 -152 -30 -59 0 -116
3 -128 6 -20 6 -21 8 -8 43 25 72 68 147 133 230 75 98 93 136 81 169 -5 12
-11 22 -14 22 -4 0 -3 -6 0 -12 4 -7 1 -6 -7 2 -16 18 -25 18 -147 -9 -52 -12
-97 -21 -100 -21 -3 0 -22 -10 -41 -22 -22 -14 -48 -21 -71 -19 -28 2 -41 -3
-51 -18 -8 -12 -18 -18 -21 -14 -4 3 -7 2 -7 -4 0 -5 -19 -16 -42 -22 -24 -7
-47 -17 -53 -21 -5 -4 -26 -11 -45 -15 -52 -11 -152 -44 -164 -54 -6 -5 -26
-12 -45 -16 -18 -4 -84 -29 -146 -56 -62 -26 -151 -59 -197 -72 -45 -14 -128
-43 -183 -65 -133 -53 -179 -59 -255 -33 -33 12 -71 21 -84 21 -14 0 -27 4
-30 9 -3 5 -23 12 -43 15 -58 10 -92 26 -98 47 -4 11 -17 32 -31 48 -23 28
-23 30 -9 71 19 55 19 79 -2 102 -20 22 -73 24 -113 3 -17 -9 -30 -12 -30 -8
0 4 -5 2 -12 -5 -7 -7 -21 -12 -33 -12 -11 0 -34 -9 -51 -19 -17 -10 -45 -22
-62 -26 -18 -3 -34 -11 -37 -16 -4 -5 -14 -9 -24 -9 -10 0 -35 -12 -56 -26
-21 -14 -46 -28 -54 -30 -9 -2 -43 -13 -75 -24 -33 -11 -62 -18 -64 -15 -3 3
-12 -1 -20 -8 -12 -9 -16 -9 -19 0 -6 16 -50 7 -84 -17 -15 -11 -31 -20 -35
-20 -4 0 -16 -8 -27 -17 -11 -10 -17 -12 -13 -5 6 11 4 11 -10 3 -11 -6 -57
-24 -104 -40 -131 -45 -217 -79 -271 -107 -76 -38 -99 -46 -96 -31 1 8 -20 12
-75 12 -43 0 -78 -4 -78 -9 0 -6 -5 -5 -12 2 -9 9 -15 9 -25 0 -8 -6 -24 -12
-36 -13 -12 -1 -44 -8 -72 -15 -66 -16 -98 -24 -231 -55 -125 -30 -127 -30
-195 32 l-40 36 33 34 c27 28 33 42 34 82 1 27 4 66 7 87 3 22 9 64 13 94 4
30 13 64 20 75 7 11 22 56 34 99 11 43 25 86 29 95 5 9 11 31 14 49 4 25 1 35
-15 47 -12 8 -25 12 -29 9 -4 -2 -10 0 -14 6 -4 6 -28 -4 -60 -24 -29 -19 -82
-49 -117 -67 -35 -18 -82 -45 -105 -61 -23 -15 -48 -28 -56 -28 -8 0 -17 -6
-20 -12 -2 -7 -47 -39 -100 -72 -52 -32 -121 -82 -153 -112 -33 -30 -64 -54
-71 -54 -20 0 -87 -40 -110 -66 -12 -13 -29 -24 -38 -24 -9 0 -27 -12 -40 -26
-13 -14 -43 -30 -67 -36 -23 -5 -57 -20 -75 -34 -17 -13 -37 -24 -43 -24 -6 0
-13 -13 -16 -29 -6 -30 -33 -42 -99 -45 -16 -1 -44 -9 -60 -18 -33 -17 -135
-121 -135 -136 0 -5 -12 -22 -27 -37 -16 -16 -22 -25 -14 -20 10 5 12 4 7 -4
-4 -6 -17 -10 -29 -8 -65 12 -85 20 -81 32 9 22 -38 61 -73 61 -17 -1 -34 -4
-38 -8 -8 -8 -36 14 -81 61 -26 27 -31 38 -24 56 18 46 119 136 298 263 41 29
110 85 146 117 69 63 323 269 380 309 23 15 58 45 79 66 21 21 53 45 70 54 18
8 57 33 87 55 30 22 75 55 100 73 100 72 126 122 87 166 -23 25 -104 44 -152
36 -22 -4 -53 -7 -70 -6 -16 1 -44 -5 -60 -13 -17 -7 -39 -13 -50 -11 -10 1
-27 -4 -37 -13 -19 -17 -105 -40 -150 -41 -15 0 -47 -7 -71 -15 -25 -8 -69
-16 -99 -18 -29 -2 -69 -11 -87 -20 -19 -9 -46 -17 -61 -17 -15 0 -48 -9 -72
-20 -25 -11 -68 -24 -96 -30 -81 -18 -128 13 -216 144 -32 48 -46 99 -51 187
-3 59 0 77 25 131 15 35 37 74 48 88 10 14 26 48 34 77 9 28 25 64 37 80 12
15 71 93 130 173 60 80 145 183 190 229 79 82 94 100 69 85 -9 -5 -9 -2 1 9 9
11 10 17 2 17 -6 0 -10 6 -9 13 2 6 -5 11 -14 11 -10 -1 -15 2 -12 7 8 13 -12
11 -111 -11 -143 -31 -208 -50 -225 -64 -14 -13 -48 -27 -76 -32 -33 -6 -53
-17 -77 -42 -21 -21 -27 -39 -30 -87 -4 -58 -26 -110 -81 -188 -10 -15 -18
-40 -18 -55 0 -47 -66 -231 -94 -263 -8 -8 -16 -29 -17 -45 -2 -17 -11 -41
-19 -54 -9 -14 -23 -54 -31 -90 -14 -56 -52 -221 -102 -435 -8 -33 -26 -121
-40 -195 -32 -171 -37 -192 -80 -381 -19 -85 -35 -166 -35 -179 0 -13 -11 -40
-25 -59 -18 -27 -30 -70 -48 -176 -14 -77 -32 -157 -40 -177 -14 -34 -20 -38
-54 -39 -100 -3 -113 -8 -180 -74 -24 -24 -43 -40 -44 -36 -2 22 3 223 6 252
2 18 6 68 10 109 3 42 7 87 10 100 2 14 9 86 15 160 17 199 36 366 45 400 2 8
6 38 10 65 20 157 120 634 206 979 27 109 49 209 49 223 0 13 -8 32 -18 43
-18 19 -32 20 -107 1 -22 -5 -58 -12 -80 -15 -64 -8 -91 -22 -138 -71 -24 -25
-52 -45 -61 -45 -9 0 -26 -9 -38 -20 -24 -22 -43 -26 -53 -10 -3 6 -24 10 -45
10 -21 0 -42 5 -45 10 -3 6 -20 10 -37 10 -21 0 -38 9 -59 33 -16 17 -37 41
-47 52 -11 11 -29 37 -41 58 -13 20 -24 37 -25 37 -2 0 -13 -8 -24 -19 -14
-11 -22 -30 -22 -48 0 -31 34 -80 52 -75 5 1 6 -2 3 -8 -4 -6 0 -19 8 -28 8
-9 25 -41 37 -69 13 -29 27 -53 31 -53 7 0 22 -39 20 -52 -2 -12 13 -10 26 3
8 8 16 -6 29 -48 10 -32 24 -64 31 -71 7 -7 13 -28 13 -45 0 -18 7 -70 14
-117 25 -146 26 -173 12 -250 -8 -41 -13 -78 -10 -81 2 -4 1 -10 -4 -13 -5 -3
-14 -31 -21 -63 -16 -74 -45 -185 -65 -243 -34 -102 -56 -178 -66 -225 -11
-51 -43 -135 -84 -215 -13 -25 -26 -56 -30 -70 -5 -24 -64 -107 -116 -167 -40
-45 -90 -116 -90 -127 0 -6 -14 -27 -30 -46 -16 -19 -30 -40 -30 -45 0 -6 -9
-16 -20 -22 -11 -7 -23 -26 -27 -43 -9 -33 -213 -246 -247 -256 -12 -4 -34
-18 -50 -31 -26 -22 -90 -59 -108 -62 -4 -1 -23 -8 -42 -16 -20 -8 -40 -15
-47 -15 -6 0 -25 -6 -42 -14 -65 -30 -291 -86 -345 -86 -116 0 -239 119 -311
300 -16 41 -32 93 -35 114 -4 22 -11 44 -16 51 -17 21 -42 220 -44 350 -1 131
10 292 30 415 3 22 7 57 19 172 1 15 -5 32 -15 40 -39 34 -56 29 -210 -68 -83
-52 -161 -94 -173 -94 -12 0 -40 -11 -62 -25 -22 -13 -62 -37 -89 -52 -26 -15
-60 -38 -75 -50 -15 -12 -40 -25 -55 -29 -15 -4 -48 -22 -72 -40 -24 -19 -52
-34 -62 -34 -9 0 -32 -16 -49 -35 -18 -19 -36 -35 -41 -35 -4 0 -28 -20 -53
-44 -34 -34 -46 -55 -51 -88 -3 -24 -13 -70 -20 -103 -8 -33 -15 -63 -16 -68
-9 -50 -12 -96 -17 -232 -3 -88 -7 -171 -10 -186 -4 -23 -23 -337 -30 -509 -1
-41 -7 -98 -13 -126 -6 -27 -9 -77 -6 -111 3 -39 -1 -75 -11 -103 -8 -23 -15
-62 -15 -85 0 -24 -4 -45 -10 -47 -5 -1 -11 -41 -12 -86 -2 -68 -6 -86 -20
-93 -13 -7 -18 -6 -18 2 0 6 -8 1 -19 -12 -12 -16 -18 -41 -18 -77 -1 -43 -5
-57 -23 -69 -12 -8 -25 -26 -31 -40 -7 -19 -15 -24 -37 -22 -43 5 -94 -42 -97
-87 -2 -19 -4 -36 -6 -38 -6 -4 -89 -36 -94 -36 -3 0 -16 23 -30 51 -27 52
-58 180 -69 279 -4 30 -9 69 -12 85 -3 17 -7 248 -9 515 -3 267 -5 499 -6 515
-2 51 13 317 26 465 2 25 7 79 10 120 3 41 8 95 10 120 2 25 7 79 10 120 3 41
8 91 10 110 3 19 7 55 10 80 16 123 82 497 135 761 33 162 60 300 60 305 0 26
-52 68 -135 108 -16 8 -41 26 -54 40 -13 14 -40 31 -60 37 -20 6 -50 24 -66
40 -17 16 -46 34 -65 40 -69 24 -77 34 -75 93 2 67 50 174 91 203 16 11 62 36
102 56 40 20 105 59 145 85 39 27 126 79 192 116 142 80 168 103 192 168 17
49 29 65 75 104 37 31 49 33 96 12 24 -10 56 -18 71 -18 16 0 113 39 217 86
391 178 592 254 738 279 50 9 127 27 171 40 44 13 111 29 149 35 38 6 73 13
77 15 17 11 166 30 256 32 l71 2 -9 -31z m-433 -1124 c-14 -27 -34 -72 -45
-101 -11 -28 -38 -88 -61 -131 -49 -97 -76 -169 -140 -376 -28 -88 -50 -160
-50 -160 0 -1 -26 -2 -57 -2 -37 -1 -75 -8 -103 -21 -84 -39 -255 -112 -277
-118 -26 -7 -27 -6 -13 29 5 14 12 47 15 73 4 27 13 69 20 95 7 25 11 48 8 51
-2 3 3 19 12 37 9 17 18 53 20 78 4 49 20 101 52 164 23 47 174 166 308 243
55 31 111 65 125 75 43 30 203 120 207 116 3 -2 -7 -26 -21 -52z m1828 -519
c10 -8 23 -12 27 -9 4 2 6 -6 3 -18 -3 -13 -7 -34 -10 -48 -14 -72 -36 -170
-40 -170 -2 0 -1 38 2 85 4 48 2 85 -3 85 -5 0 -8 12 -7 28 1 15 -3 35 -8 45
-11 21 9 23 36 2z m-45 -8 c8 -10 7 -14 -4 -14 -8 0 -12 4 -9 8 2 4 -2 10 -8
12 -8 4 -9 6 -2 6 6 1 17 -5 23 -12z m4794 -93 c-6 -15 -13 -17 -37 -8 -12 4
-12 9 -3 18 15 17 47 8 40 -10z m4337 -203 c-10 -14 -29 -36 -42 -48 l-23 -22
-63 61 c-51 49 -61 64 -58 86 3 15 8 51 11 81 l7 53 94 -93 93 -92 -19 -26z
m-2947 -117 c11 -11 -17 -30 -53 -37 -19 -3 -44 -8 -55 -11 -47 -10 -75 -17
-160 -37 -49 -11 -97 -22 -105 -24 -8 -2 -35 -8 -60 -15 -25 -7 -53 -14 -62
-16 -10 -2 -26 -6 -37 -8 -10 -2 -35 -9 -56 -15 l-37 -10 18 27 c40 63 80 111
94 113 8 1 29 1 45 1 148 -5 227 -5 265 2 25 4 74 12 110 17 35 6 66 12 69 15
6 6 17 5 24 -2z m3897 -538 c82 -82 149 -150 147 -151 -2 -1 -40 -9 -166 -31
-8 -2 -24 -5 -35 -8 -20 -5 -201 -32 -275 -42 -61 -8 -87 -13 -131 -29 -59
-21 -65 -19 -45 13 15 22 125 159 160 198 5 6 42 47 80 89 39 43 76 87 83 97
8 11 18 18 23 16 4 -2 76 -70 159 -152z m-3560 -130 c-5 -5 -20 -11 -32 -13
-21 -3 -22 -3 -4 10 22 16 52 19 36 3z m-3475 -166 c3 -5 2 -10 -4 -10 -5 0
-13 5 -16 10 -3 6 -2 10 4 10 5 0 13 -4 16 -10z"/>
<path d="M6833 10228 c-26 -29 -67 -187 -60 -231 3 -18 0 -40 -7 -49 -11 -16
-12 -65 -2 -133 4 -24 -33 -92 -54 -100 -8 -3 -31 -14 -50 -25 -56 -30 -104
-34 -171 -14 -33 10 -68 26 -78 35 -35 33 -51 205 -20 225 5 3 9 12 9 20 0 8
7 31 17 52 15 35 26 99 15 87 -3 -3 -11 3 -18 14 -11 15 -20 17 -63 10 -126
-20 -320 -137 -531 -319 -36 -31 -81 -67 -100 -80 -19 -13 -54 -41 -77 -62
-24 -21 -47 -38 -51 -38 -5 0 -62 -52 -126 -115 -128 -128 -137 -146 -90 -200
23 -27 31 -30 92 -31 84 -2 215 17 397 57 128 29 221 39 377 44 116 3 148 1
210 -17 90 -25 167 -63 175 -86 7 -19 103 -150 142 -194 28 -32 70 -37 93 -10
9 9 30 51 48 92 32 72 190 389 210 420 5 8 22 41 37 72 16 31 46 87 68 125 22
37 52 95 67 128 14 33 51 98 82 143 58 86 66 113 41 147 -22 29 -75 21 -177
-26 -48 -22 -102 -43 -121 -46 -41 -6 -112 28 -177 86 -51 46 -78 51 -107 19z
m371 -357 c6 -10 -16 -61 -26 -61 -5 0 -8 -6 -8 -14 0 -8 -5 -18 -11 -22 -8
-4 -9 4 -4 27 15 70 33 96 49 70z m-649 -382 c77 -77 148 -145 157 -150 39
-21 137 -46 167 -41 17 2 31 2 31 -1 0 -7 -61 -140 -67 -146 -2 -3 -47 38
-101 91 -53 52 -113 104 -132 115 -44 26 -160 64 -208 69 -51 5 -201 5 -237 0
l-29 -4 35 32 c66 59 219 174 234 175 6 1 73 -62 150 -140z"/>
<path d="M8118 10184 c-2 -1 -46 -5 -98 -9 -136 -11 -163 -28 -154 -101 5 -41
1 -54 -38 -117 -23 -40 -48 -81 -54 -92 -6 -11 -48 -80 -93 -153 -94 -153
-102 -191 -46 -219 27 -14 67 -7 85 15 28 32 64 52 97 52 18 0 100 25 181 56
81 31 210 75 287 99 310 96 536 219 550 298 4 21 -3 36 -35 71 -35 38 -52 47
-118 65 -107 28 -259 43 -423 40 -76 -1 -140 -3 -141 -5z m292 -369 c0 -4
-158 -55 -171 -55 -5 0 -9 9 -9 20 0 22 19 28 95 32 28 2 58 4 68 5 9 1 17 0
17 -2z"/>
<path d="M2919 9786 c-73 -55 -119 -106 -187 -206 -36 -52 -68 -97 -71 -100
-4 -3 -17 -39 -30 -80 -33 -105 -111 -300 -132 -331 -32 -46 -124 -375 -148
-529 -5 -36 -15 -103 -20 -150 -6 -47 -13 -94 -15 -105 -5 -25 -15 -100 -26
-190 -13 -108 -5 -332 14 -386 10 -26 35 -64 60 -88 42 -42 47 -43 105 -43 77
0 163 39 237 109 28 26 73 67 101 90 80 66 277 361 382 571 62 124 152 370
173 471 32 157 29 361 -7 527 -15 69 -84 228 -102 235 -4 2 -33 33 -63 68
-105 122 -164 171 -205 171 -12 0 -42 -15 -66 -34z m377 -430 c8 -28 16 -71
20 -96 3 -25 7 -56 10 -70 7 -39 6 -209 -2 -270 -10 -84 -46 -212 -97 -342
-41 -104 -112 -259 -137 -298 -5 -8 -37 -62 -71 -120 -109 -184 -206 -316
-268 -362 -31 -23 -66 -53 -79 -67 l-23 -26 5 65 c3 36 14 122 26 192 11 70
23 153 25 185 3 32 14 99 25 148 11 50 23 101 26 115 16 78 86 297 104 327 29
49 87 192 125 307 18 55 39 102 46 105 8 3 15 13 17 21 8 33 118 184 166 226
57 50 58 49 82 -40z"/>
<path d="M12192 9525 c-26 -18 -78 -55 -117 -81 -64 -44 -159 -118 -210 -163
-11 -10 -47 -36 -80 -58 -33 -22 -76 -56 -95 -74 -20 -19 -50 -45 -67 -57 -32
-24 -35 -41 -13 -81 9 -18 19 -24 40 -23 497 13 561 20 585 56 8 12 21 65 29
117 8 52 22 128 31 169 8 41 18 100 21 132 6 53 5 57 -21 74 -41 27 -51 26
-103 -11z"/>
<path d="M7865 9063 c-22 -2 -76 -10 -120 -18 -44 -8 -114 -17 -155 -20 -40
-4 -82 -11 -92 -16 -9 -5 -55 -9 -102 -8 -70 1 -88 -2 -103 -17 -11 -11 -52
-97 -92 -193 -84 -199 -150 -341 -198 -422 -56 -97 -51 -199 11 -199 20 0 86
37 86 48 0 14 48 36 165 77 174 61 763 278 880 325 55 21 132 49 170 61 159
48 290 134 300 198 12 69 -98 132 -297 171 -53 10 -362 19 -453 13z m305 -373
c-8 -5 -67 -28 -130 -51 -63 -23 -193 -70 -289 -106 -95 -35 -175 -62 -177
-60 -3 2 11 40 29 83 l34 79 79 1 c43 0 97 5 119 12 22 6 72 14 110 17 39 3
99 12 135 18 90 17 109 19 90 7z"/>
<path d="M3715 9039 c-4 -6 -5 -12 -2 -15 2 -3 7 2 10 11 7 17 1 20 -8 4z"/>
<path d="M10755 8439 c-11 -16 -1 -19 13 -3 7 8 8 14 3 14 -5 0 -13 -5 -16
-11z"/>
<path d="M7360 8069 c0 -5 5 -7 10 -4 6 3 10 8 10 11 0 2 -4 4 -10 4 -5 0 -10
-5 -10 -11z"/>
</g>
</svg>
